<svg id="Laag_1" data-name="Laag 1" xmlns="http://www.w3.org/2000/svg" viewBox="0 0 54.78 42.86"><defs><style>.cls-1{fill:#85cfe9;}.cls-2{fill:#46c0ec;}</style></defs><title>Clouds</title><path class="cls-1" d="M34.79,18h0c0-.09,0-.17,0-.25a12.18,12.18,0,0,0-24.36,0v0a9.94,9.94,0,0,0,.46,19.87H34.79a9.82,9.82,0,0,0,0-19.64" transform="translate(-0.95 -5.52)"/><path class="cls-2" d="M45.92,28.73h0a2,2,0,0,0,0-.25,12.18,12.18,0,1,0-24.36,0v0A9.94,9.94,0,0,0,22,48.37H45.92a9.82,9.82,0,1,0,0-19.64" transform="translate(-0.95 -5.52)"/></svg>