<svg id="Laag_1" data-name="Laag 1" xmlns="http://www.w3.org/2000/svg" viewBox="0 0 47.37 52.5"><defs><style>.cls-1{fill:#30b0d3;}</style></defs><title>Drizzle</title><path class="cls-1" d="M28.53,8.56h0A23.68,23.68,0,0,0,4.85,32.24c0,.62,0,1.23.08,1.84a7.82,7.82,0,0,1,15.49,0h.17a7.81,7.81,0,0,1,7.74-6.77h.4a7.82,7.82,0,0,1,7.75,6.77h.16a7.82,7.82,0,0,1,15.5,0c0-.61.08-1.22.08-1.84A23.69,23.69,0,0,0,28.53,8.56" transform="translate(-4.85 -2.1)"/><path class="cls-1" d="M33,54.6a5.75,5.75,0,0,1-5.74-5.74V31.43a1.28,1.28,0,1,1,2.55,0V48.86a3.19,3.19,0,1,0,6.37,0V48a1.28,1.28,0,1,1,2.55,0v.85A5.74,5.74,0,0,1,33,54.6" transform="translate(-4.85 -2.1)"/><path class="cls-1" d="M28.53,8.05a1.27,1.27,0,0,1-1.27-1.28V3.37a1.28,1.28,0,0,1,2.55,0v3.4a1.28,1.28,0,0,1-1.28,1.28" transform="translate(-4.85 -2.1)"/></svg>