<svg id="Laag_1" data-name="Laag 1" xmlns="http://www.w3.org/2000/svg" viewBox="0 0 48.98 47.95"><defs><style>.cls-1{fill:#46c0ec;}.cls-2{fill:#b0def1;}</style></defs><title>Hail</title><path class="cls-1" d="M41.82,18.32h0a2.83,2.83,0,0,0,0-.29,13.67,13.67,0,0,0-27.33,0v0A11.15,11.15,0,0,0,15,40.35h26.8a11,11,0,1,0,0-22" transform="translate(-3.86 -4.37)"/><path class="cls-2" d="M12.27,34.23a.94.94,0,0,1-.95-.94V27a.95.95,0,1,1,1.89,0v6.3a.94.94,0,0,1-.94.94" transform="translate(-3.86 -4.37)"/><path class="cls-2" d="M12.27,52.32a.94.94,0,0,1-.95-1V38.44a.95.95,0,0,1,1.89,0V51.37a.94.94,0,0,1-.94,1" transform="translate(-3.86 -4.37)"/><path class="cls-2" d="M20.31,30.65a.94.94,0,0,1-.95-.94V20.52a.95.95,0,1,1,1.89,0v9.19a.94.94,0,0,1-.94.94" transform="translate(-3.86 -4.37)"/><path class="cls-2" d="M20.31,41.2a.94.94,0,0,1-.95-.94v-6a.95.95,0,0,1,1.89,0v6a.94.94,0,0,1-.94.94" transform="translate(-3.86 -4.37)"/><path class="cls-2" d="M20.31,52.32a.94.94,0,0,1-.95-1V46.59a.95.95,0,1,1,1.89,0v4.78a.94.94,0,0,1-.94,1" transform="translate(-3.86 -4.37)"/><path class="cls-2" d="M28.35,52.32a.94.94,0,0,1-1-1V38.44a.95.95,0,0,1,1.89,0V51.37a.94.94,0,0,1-.94,1" transform="translate(-3.86 -4.37)"/><path class="cls-2" d="M36.39,52.32a.94.94,0,0,1-1-1V46.59a.95.95,0,1,1,1.89,0v4.78a.94.94,0,0,1-.94,1" transform="translate(-3.86 -4.37)"/><path class="cls-2" d="M44.43,52.32a.94.94,0,0,1-1-1V41.48a.95.95,0,1,1,1.89,0v9.89a.94.94,0,0,1-.94,1" transform="translate(-3.86 -4.37)"/><path class="cls-2" d="M44.43,36a.94.94,0,0,1-1-1V30.6a.95.95,0,1,1,1.89,0v4.48a.94.94,0,0,1-.94,1" transform="translate(-3.86 -4.37)"/><path class="cls-2" d="M36.39,43.59a.94.94,0,0,1-1-.94V23.39a.95.95,0,1,1,1.89,0V42.65a.94.94,0,0,1-.94.94" transform="translate(-3.86 -4.37)"/><path class="cls-2" d="M28.35,33.92a.94.94,0,0,1-1-1V27.3a.95.95,0,1,1,1.89,0V33a.94.94,0,0,1-.94,1" transform="translate(-3.86 -4.37)"/></svg>