<svg id="Laag_1" data-name="Laag 1" xmlns="http://www.w3.org/2000/svg" viewBox="0 0 53 44.57"><defs><style>.cls-1{fill:#46c0ec;}.cls-2{fill:#b0def1;}</style></defs><title>Mist</title><path class="cls-1" d="M38.87,15.53h0c0-.07,0-.15,0-.22a10.9,10.9,0,1,0-21.79,0v0a8.89,8.89,0,0,0,.41,17.78H38.87a8.79,8.79,0,0,0,0-17.58" transform="translate(-1.25 -4.41)"/><path class="cls-2" d="M41.51,38.5H14.67a1.13,1.13,0,1,1,0-2.26H41.51a1.13,1.13,0,1,1,0,2.26" transform="translate(-1.25 -4.41)"/><path class="cls-2" d="M53.11,38.5h-5.7a1.13,1.13,0,1,1,0-2.26h5.7a1.13,1.13,0,1,1,0,2.26" transform="translate(-1.25 -4.41)"/><path class="cls-2" d="M52,49H10a1.14,1.14,0,0,1,0-2.27H52A1.14,1.14,0,0,1,52,49" transform="translate(-1.25 -4.41)"/><path class="cls-2" d="M33.89,43.74H2.38a1.14,1.14,0,0,1,0-2.27H33.89a1.14,1.14,0,0,1,0,2.27" transform="translate(-1.25 -4.41)"/><path class="cls-2" d="M49.55,43.74H40.33a1.14,1.14,0,0,1,0-2.27h9.22a1.14,1.14,0,1,1,0,2.27" transform="translate(-1.25 -4.41)"/></svg>