<svg id="Laag_1" data-name="Laag 1" xmlns="http://www.w3.org/2000/svg" viewBox="0 0 48.01 47.39"><defs><style>.cls-1{fill:#46c0ec;}.cls-2{fill:#b0def1;}</style></defs><title>Rain</title><path class="cls-1" d="M41.55,18.32h0c0-.09,0-.18,0-.28a13.39,13.39,0,1,0-26.78,0v0a10.93,10.93,0,0,0,.51,21.85H41.55a10.8,10.8,0,1,0,0-21.6" transform="translate(-4.34 -4.65)"/><path class="cls-2" d="M9.32,52a1.43,1.43,0,0,1-.74-.21,1.4,1.4,0,0,1-.44-1.92L19,32.61a1.39,1.39,0,0,1,2.36,1.48L10.5,51.39A1.39,1.39,0,0,1,9.32,52" transform="translate(-4.34 -4.65)"/><path class="cls-2" d="M31.73,52a1.4,1.4,0,0,1-1.18-2.13l7.67-12.26a1.38,1.38,0,0,1,1.91-.44,1.4,1.4,0,0,1,.45,1.92L32.91,51.39a1.38,1.38,0,0,1-1.18.65" transform="translate(-4.34 -4.65)"/><path class="cls-2" d="M20.13,52A1.39,1.39,0,0,1,19,49.92L34.09,25.4a1.39,1.39,0,1,1,2.36,1.46L21.32,51.38a1.39,1.39,0,0,1-1.19.66" transform="translate(-4.34 -4.65)"/></svg>