<svg id="Laag_1" data-name="Laag 1" xmlns="http://www.w3.org/2000/svg" viewBox="0 0 47.38 50.09"><defs><style>.cls-1{fill:#46c0ec;}.cls-2{fill:#b0def1;}</style></defs><title>Snow</title><path class="cls-1" d="M41.38,16.79h0a2.45,2.45,0,0,0,0-.27,13.22,13.22,0,1,0-26.43,0v0a10.79,10.79,0,0,0,.5,21.57H41.38a10.66,10.66,0,0,0,0-21.32" transform="translate(-4.66 -3.3)"/><path class="cls-2" d="M18,31.23A2.23,2.23,0,1,1,15.77,29,2.22,2.22,0,0,1,18,31.23" transform="translate(-4.66 -3.3)"/><path class="cls-2" d="M18,38.11a2.23,2.23,0,1,1-2.22-2.23A2.21,2.21,0,0,1,18,38.11" transform="translate(-4.66 -3.3)"/><path class="cls-2" d="M18,44.64a2.23,2.23,0,1,1-2.22-2.23A2.21,2.21,0,0,1,18,44.64" transform="translate(-4.66 -3.3)"/><path class="cls-2" d="M18,51.17a2.23,2.23,0,1,1-2.22-2.23A2.21,2.21,0,0,1,18,51.17" transform="translate(-4.66 -3.3)"/><path class="cls-2" d="M26.38,31.23A2.23,2.23,0,1,1,24.15,29a2.23,2.23,0,0,1,2.23,2.22" transform="translate(-4.66 -3.3)"/><path class="cls-2" d="M26.38,38.11a2.23,2.23,0,1,1-2.23-2.23,2.22,2.22,0,0,1,2.23,2.23" transform="translate(-4.66 -3.3)"/><path class="cls-2" d="M26.38,44.64a2.23,2.23,0,1,1-2.23-2.23,2.22,2.22,0,0,1,2.23,2.23" transform="translate(-4.66 -3.3)"/><path class="cls-2" d="M26.38,51.17a2.23,2.23,0,1,1-2.23-2.23,2.22,2.22,0,0,1,2.23,2.23" transform="translate(-4.66 -3.3)"/><path class="cls-2" d="M34.76,31.23A2.23,2.23,0,1,1,32.54,29a2.22,2.22,0,0,1,2.22,2.22" transform="translate(-4.66 -3.3)"/><path class="cls-2" d="M34.76,38.11a2.23,2.23,0,1,1-2.22-2.23,2.21,2.21,0,0,1,2.22,2.23" transform="translate(-4.66 -3.3)"/><path class="cls-2" d="M34.76,44.64a2.23,2.23,0,1,1-2.22-2.23,2.21,2.21,0,0,1,2.22,2.23" transform="translate(-4.66 -3.3)"/><path class="cls-2" d="M34.76,51.17a2.23,2.23,0,1,1-2.22-2.23,2.21,2.21,0,0,1,2.22,2.23" transform="translate(-4.66 -3.3)"/><path class="cls-2" d="M43.15,31.23A2.23,2.23,0,1,1,40.92,29a2.23,2.23,0,0,1,2.23,2.22" transform="translate(-4.66 -3.3)"/><path class="cls-2" d="M43.15,38.11a2.23,2.23,0,1,1-2.23-2.23,2.22,2.22,0,0,1,2.23,2.23" transform="translate(-4.66 -3.3)"/><path class="cls-2" d="M43.15,44.64a2.23,2.23,0,1,1-2.23-2.23,2.22,2.22,0,0,1,2.23,2.23" transform="translate(-4.66 -3.3)"/><path class="cls-2" d="M43.15,51.17a2.23,2.23,0,1,1-2.23-2.23,2.22,2.22,0,0,1,2.23,2.23" transform="translate(-4.66 -3.3)"/></svg>