<svg id="Laag_1" data-name="Laag 1" xmlns="http://www.w3.org/2000/svg" viewBox="0 0 42.59 47.19"><defs><style>.cls-1{fill:#b0def1;}.cls-2{fill:#46c0ec;}.cls-3{fill:#f8af41;}</style></defs><title>Storm</title><path class="cls-1" d="M36.54,39.27l-3,6.42a4.91,4.91,0,0,0,0,4.45,3.35,3.35,0,0,0,5.94,0,4.91,4.91,0,0,0,.05-4.45Z" transform="translate(-7.02 -4.75)"/><path class="cls-2" d="M40,16.88h0a2.11,2.11,0,0,0,0-.25,11.89,11.89,0,0,0-23.77,0v0A9.7,9.7,0,0,0,16.73,36H40a9.58,9.58,0,0,0,0-19.16" transform="translate(-7.02 -4.75)"/><polygon class="cls-3" points="29.52 28.38 17.71 28.38 23.69 17.74 17.71 17.74 9.22 33.02 18.37 33.02 14.71 46.84 29.52 28.38"/></svg>