<svg id="Laag_1" data-name="Laag 1" xmlns="http://www.w3.org/2000/svg" viewBox="0 0 46.39 29.83"><defs><style>.cls-1{fill:#46c0ec;}.cls-2{fill:#b0def1;}</style></defs><title>Wind</title><path class="cls-1" d="M29.15,22.25h0c0-.06,0-.12,0-.18a8.64,8.64,0,1,0-17.28,0v0a7,7,0,0,0,.33,14.09H29.15a7,7,0,1,0,0-13.93" transform="translate(-5.15 -13.43)"/><path class="cls-2" d="M47.34,28.93h-14a1.2,1.2,0,0,1,0-2.4h14a1.81,1.81,0,1,0,0-3.61H45.57a1.2,1.2,0,1,1,0-2.4h1.77a4.21,4.21,0,0,1,0,8.41" transform="translate(-5.15 -13.43)"/><path class="cls-2" d="M42.79,43.26a5.37,5.37,0,0,1-5.36-5.36,3.67,3.67,0,0,1,7.33,0v.62a1.2,1.2,0,1,1-2.39,0V37.9a1.27,1.27,0,0,0-2.54,0,3,3,0,1,0,5.93,0V36.68a4.05,4.05,0,0,0-4-4H22.91a1.2,1.2,0,1,1,0-2.4h18.8a6.45,6.45,0,0,1,6.44,6.45V37.9a5.36,5.36,0,0,1-5.36,5.36" transform="translate(-5.15 -13.43)"/></svg>