<svg id="Laag_1" data-name="Laag 1" xmlns="http://www.w3.org/2000/svg" viewBox="0 0 44.64 44.64"><defs><style>.cls-1{fill:#f8af41;}</style></defs><title>Zon</title><path class="cls-1" d="M39.05,26.85a10.71,10.71,0,1,1-10.7-10.7,10.7,10.7,0,0,1,10.7,10.7" transform="translate(-6.02 -4.68)"/><path class="cls-1" d="M28.35,13.24A1.34,1.34,0,0,1,27,11.89V6a1.35,1.35,0,0,1,2.7,0v5.87a1.35,1.35,0,0,1-1.35,1.35" transform="translate(-6.02 -4.68)"/><path class="cls-1" d="M28.35,49.32A1.34,1.34,0,0,1,27,48V42.1a1.35,1.35,0,1,1,2.7,0V48a1.35,1.35,0,0,1-1.35,1.35" transform="translate(-6.02 -4.68)"/><path class="cls-1" d="M49.32,28.35H43.45a1.35,1.35,0,0,1,0-2.7h5.87a1.35,1.35,0,1,1,0,2.7" transform="translate(-6.02 -4.68)"/><path class="cls-1" d="M7.37,28.35h5.87a1.35,1.35,0,0,0,0-2.7H7.37a1.35,1.35,0,1,0,0,2.7" transform="translate(-6.02 -4.68)"/><path class="cls-1" d="M17.67,17.67a1.34,1.34,0,0,1-1-.4l-4.15-4.15a1.35,1.35,0,1,1,1.91-1.91l4.15,4.15a1.35,1.35,0,0,1,0,1.91,1.32,1.32,0,0,1-.95.4" transform="translate(-6.02 -4.68)"/><path class="cls-1" d="M43.18,43.18a1.34,1.34,0,0,1-1-.4l-4.15-4.15A1.35,1.35,0,1,1,40,36.72l4.15,4.15a1.35,1.35,0,0,1,0,1.91,1.32,1.32,0,0,1-1,.4" transform="translate(-6.02 -4.68)"/><path class="cls-1" d="M13.52,43.18a1.34,1.34,0,0,1-1-.4,1.36,1.36,0,0,1,0-1.91l4.15-4.15a1.36,1.36,0,0,1,1.91,0,1.35,1.35,0,0,1,0,1.91l-4.15,4.15a1.32,1.32,0,0,1-1,.4" transform="translate(-6.02 -4.68)"/><path class="cls-1" d="M39,17.67a1.34,1.34,0,0,1-1-.4,1.36,1.36,0,0,1,0-1.91l4.15-4.15a1.36,1.36,0,0,1,1.91,0,1.35,1.35,0,0,1,0,1.91L40,17.27a1.32,1.32,0,0,1-.95.4" transform="translate(-6.02 -4.68)"/></svg>