<svg id="Laag_1" data-name="Laag 1" xmlns="http://www.w3.org/2000/svg" viewBox="0 0 285.91 285.91"><defs><style>.cls-1{fill:#e5f1fa;}.cls-2{fill:none;stroke:#4fa974;stroke-width:8px;}.cls-16,.cls-2,.cls-4{stroke-miterlimit:10;}.cls-3{fill:#4fa974;}.cls-4{fill:#0d727f;stroke:#0d727f;}.cls-16,.cls-4,.cls-5,.cls-6,.cls-9{stroke-width:0.25px;}.cls-5{fill:#d1d2d3;stroke:#d1d2d3;}.cls-11,.cls-12,.cls-15,.cls-5,.cls-6,.cls-7,.cls-8,.cls-9{stroke-linecap:round;stroke-linejoin:round;}.cls-6{fill:#a3a3a3;stroke:#a4a3a3;}.cls-13,.cls-7{fill:#cc723f;}.cls-7{stroke:#cc723f;}.cls-14,.cls-8{fill:#d1ddf2;}.cls-8{stroke:#d1ddf2;}.cls-15,.cls-9{fill:#fff;stroke:#fff;}.cls-10{fill:#ffd273;}.cls-11{fill:#eca12b;stroke:#eba02a;}.cls-12{fill:#eaab4e;stroke:#eaab4e;}.cls-15{stroke-width:0.25px;}.cls-16{fill:#4a9f39;stroke:#4a9f39;}.cls-17{fill:#2e8b27;}</style></defs><title>3</title><g id="Group_179" data-name="Group 179"><circle id="Ellipse_16" data-name="Ellipse 16" class="cls-1" cx="142.95" cy="142.95" r="142.95"/><g id="Group_47" data-name="Group 47"><ellipse id="Ellipse_16-2" data-name="Ellipse 16-2" class="cls-2" cx="153.57" cy="128.58" rx="80.54" ry="78.6"/><rect id="Rectangle_95" data-name="Rectangle 95" class="cls-3" x="44.53" y="207.58" width="73.87" height="16.19" rx="6.87" transform="translate(-135.75 136.95) rotate(-49.32)"/></g><g id="Group_55" data-name="Group 55"><path id="Path_235" data-name="Path 235" class="cls-4" d="M156.48,164.16l-.86,10L157.57,188s1.12,1.2,2.09.8a1.64,1.64,0,0,0,.76-.8c1.16-2.27,1-11.38,1-13.87,0-5.15.62-10.59.62-10.59Z" transform="translate(-0.55 0.06)"/><path id="Path_236" data-name="Path 236" class="cls-4" d="M145.14,163.51l3.07,24.62s1.66,1,2.36,0,1.94-14.3,1.94-14.3l-.76-9.78Z" transform="translate(-0.55 0.06)"/><g id="Group_48" data-name="Group 48"><path id="Path_237" data-name="Path 237" class="cls-5" d="M148.11,188.27l2.6-.1,1.55,1.37v1.62H146.7V189.5Z" transform="translate(-0.55 0.06)"/><path id="Path_238" data-name="Path 238" class="cls-6" d="M147.31,189.59h4.35a12.76,12.76,0,0,0-2.19-.47,2.51,2.51,0,0,0-1.86.21A1.48,1.48,0,0,0,147.31,189.59Z" transform="translate(-0.55 0.06)"/></g><g id="Group_49" data-name="Group 49"><path id="Path_239" data-name="Path 239" class="cls-5" d="M157.88,187.93l2.6-.1L162,189.2v1.61h-5.57v-1.65Z" transform="translate(-0.55 0.06)"/><path id="Path_240" data-name="Path 240" class="cls-6" d="M157.09,189.25h4.34a12.37,12.37,0,0,0-2.19-.47,2.52,2.52,0,0,0-1.86.21A1.75,1.75,0,0,0,157.09,189.25Z" transform="translate(-0.55 0.06)"/></g><path id="Path_241" data-name="Path 241" class="cls-7" d="M164.17,107.24h2.68c.39,2.26.74,4.7,1,7.31a113.94,113.94,0,0,1,.6,13.82l-3.1.68c.07-3.12.05-6.57-.14-10.29-.21-4.11-.59-7.87-1.05-11.21" transform="translate(-0.55 0.06)"/><g id="Group_52" data-name="Group 52"><path id="Path_242" data-name="Path 242" class="cls-8" d="M164.78,92.67a25.22,25.22,0,0,1-6.17,2.67c-8.8,2.5-16.53-.5-19.56-1.88a17.1,17.1,0,0,0,3.27-9.31,22,22,0,0,1-1.81-11.07,10.14,10.14,0,0,1,1.81-3.34,10.78,10.78,0,0,1,7.46-3.85c4.76-.28,9.87,3.75,11.62,10a48,48,0,0,0-.55,9.5c.1,2.34.36,4,1.57,5.47A6.5,6.5,0,0,0,164.78,92.67Z" transform="translate(-0.55 0.06)"/><path id="Path_243" data-name="Path 243" class="cls-9" d="M158.18,93.83l-17.33.06a13.34,13.34,0,0,0-3.26,5.8c-1.17,4.57.59,8.74,2,12a30.59,30.59,0,0,0,2.18,4.22l1-.88.77,1.3a15,15,0,0,1,.3,6.64c-.43,2.3-1.37,4-.51,5.58a4.08,4.08,0,0,0,2,1.7c4.49,2.1,15.44-1.06,16.79-1.45q.28-8.4.58-16.8l6.74.06a20.74,20.74,0,0,0-2.3-9.35A21.16,21.16,0,0,0,158.18,93.83Z" transform="translate(-0.55 0.06)"/><g id="Group_51" data-name="Group 51"><path id="Path_244" data-name="Path 244" class="cls-10" d="M142.81,93.83h2.8a8.07,8.07,0,0,1,3.82,3,14,14,0,0,1,1.61,5c.15.78.25,1.44.31,1.9a14,14,0,0,1,9.87-.47,10,10,0,0,0-6.1-9.49h3.2a13.59,13.59,0,0,1,3.86,4,14.25,14.25,0,0,1,1.81,9.82V113l-.5,11.75,3.35,38a68.1,68.1,0,0,1-24,.7,55.27,55.27,0,0,0-.76-15.93A38.56,38.56,0,0,1,141,136.85a22.2,22.2,0,0,1,1.83-7.21c.44-.89,1-1.81,1-1.81,1-1.6,1.18-1.6,1.75-2.6a32,32,0,0,0,1.56-4.44,36.28,36.28,0,0,0,1.42-8.65,61.81,61.81,0,0,0-.34-6.8c-.4-5.26-.77-6.3-1.13-7A11.76,11.76,0,0,0,142.81,93.83Z" transform="translate(-0.55 0.06)"/><g id="Group_50" data-name="Group 50"><path id="Path_245" data-name="Path 245" class="cls-11" d="M150.11,113h12a3.35,3.35,0,0,0-.84-2.4c-.73-.71-1.57-.6-4.4-.62-4.17,0-5-.28-5.87.53A3.39,3.39,0,0,0,150.11,113Z" transform="translate(-0.55 0.06)"/><path id="Path_246" data-name="Path 246" class="cls-12" d="M150.1,112.75c-.24,4.81,3.7,8.14,6.9,7.74,2.8-.36,5.5-3.66,5.11-7.74Z" transform="translate(-0.55 0.06)"/></g></g><path id="Path_247" data-name="Path 247" class="cls-13" d="M148.94,91v2.75l-2.06-.1a6.65,6.65,0,0,0,2.94,2.21c2.45.91,5.52.26,5.71-.7.05-.27-.09-.71-1.12-1.41l-.92,0-.05-3.26Z" transform="translate(-0.55 0.06)"/><path id="Path_248" data-name="Path 248" class="cls-13" d="M141.72,83.86c2,5.43,6,8.87,9.42,8.5,2.9-.32,5.47-3.36,6.44-4.5a16.4,16.4,0,0,0,2.32-3.62,3,3,0,0,0,2-1.84,2.79,2.79,0,0,0-.64-2.78,17.11,17.11,0,0,0-1.55-2.81,18.21,18.21,0,0,0-2.22-2.66c-1.69-1.63-3.62-3.51-6.3-3.73-4.57-.37-7.74,4.37-7.9,4.6a10.39,10.39,0,0,0-1.57,4.42,1.89,1.89,0,0,0-1.38-.08,2.51,2.51,0,0,0-1,3.43.56.56,0,0,1,0,.08A2.74,2.74,0,0,0,141.72,83.86Z" transform="translate(-0.55 0.06)"/><path id="Path_249" data-name="Path 249" class="cls-14" d="M142.42,87.93V80.54l8.12-7.39,9.68,5.51-.66,9.89,1.37-11.17-5.84-7.53h-6.88L144,71.64l-2.92,5.65Z" transform="translate(-0.55 0.06)"/></g><path id="Path_250" data-name="Path 250" class="cls-7" d="M142.25,114.35l3.46-1.81,5,6.78,10.07-3.76,2.62,3.76-13.46,5.05a45.63,45.63,0,0,1-7.68-10Z" transform="translate(-0.55 0.06)"/><rect id="Rectangle_96" data-name="Rectangle 96" class="cls-15" x="141.11" y="112.23" width="6.16" height="1.67" transform="translate(-39.19 101.05) rotate(-34.32)"/><g id="Group_53" data-name="Group 53"><path id="Path_251" data-name="Path 251" class="cls-16" d="M163,125.24l7,1.4-.32,7.47a4.42,4.42,0,0,1,.44,2,3.82,3.82,0,0,1-1.86,3.33,3.46,3.46,0,0,1-2.27.08c-1.62-.34-4.75-1.6-4.64-3.54.07-1.2,1.35-2.28,3-2.86l-1,.24-.87-.48s.72-1.3,1.56-1.25Z" transform="translate(-0.55 0.06)"/><path id="Path_252" data-name="Path 252" class="cls-17" d="M162.93,132.93l.62-.7.78.77-1,.33Z" transform="translate(-0.55 0.06)"/></g><g id="Group_54" data-name="Group 54"><path id="Path_253" data-name="Path 253" class="cls-16" d="M159.81,114.73l4.39,5.68,6.55-3.61a4.36,4.36,0,0,0,2-.5,3.78,3.78,0,0,0,2.16-3.14,3.44,3.44,0,0,0-.94-2.07c-1-1.3-3.55-3.54-5.23-2.58-1,.59-1.44,2.23-1.25,3.92l-.21-1-.82-.56s-.84,1.22-.42,1.94Z" transform="translate(-0.55 0.06)"/><path id="Path_254" data-name="Path 254" class="cls-17" d="M166.67,111.24l-.35.86,1,.36-.13-1Z" transform="translate(-0.55 0.06)"/></g></g></g></svg>