<svg id="Laag_1" data-name="Laag 1" xmlns="http://www.w3.org/2000/svg" viewBox="0 0 285.91 285.91"><defs><style>.cls-1{fill:#e5f1fa;}.cls-2,.cls-3{fill:#c1c1c1;stroke-miterlimit:10;}.cls-2{stroke:#040405;stroke-width:2px;}.cls-3{stroke:#c3c1c1;}.cls-4{fill:#fef1d2;}.cls-5{fill:#f29273;}.cls-6,.cls-8{fill:#040405;}.cls-7,.cls-8{isolation:isolate;}.cls-8{font-size:7.78px;font-family:OpenSans, Open Sans;}.cls-9{fill:#4fa974;}</style></defs><title>stad</title><g id="Group_178" data-name="Group 178"><circle id="Ellipse_16" data-name="Ellipse 16" class="cls-1" cx="142.95" cy="142.95" r="142.95"/><g id="Group_45" data-name="Group 45"><g id="Group_44" data-name="Group 44"><path id="Path_232" data-name="Path 232" class="cls-2" d="M206.41,175.14H81.78A11.24,11.24,0,0,1,70.54,163.9V80.1A11.24,11.24,0,0,1,81.78,68.86H206.41A11.24,11.24,0,0,1,217.65,80.1v83.8a11.24,11.24,0,0,1-11.24,11.24Z" transform="translate(-0.55 0.06)"/><path id="Path_233" data-name="Path 233" class="cls-3" d="M126.75,175.8l-7.39,30.66-13.3.06v10.4h67.72L159,175.8" transform="translate(-0.55 0.06)"/></g><rect id="Rectangle_93" data-name="Rectangle 93" class="cls-4" x="70.96" y="69.89" width="145.24" height="93.19" rx="10.55"/><rect id="Rectangle_94" data-name="Rectangle 94" class="cls-4" x="70.96" y="142.05" width="145.24" height="21.03"/></g><path id="Path_234" data-name="Path 234" class="cls-5" d="M133.73,262.69c-.95-2.24-2.48-5.66-4.61-9.71-4.07-7.75-6.12-9.76-7.75-13.6-1.81-4.26-2.09-8.38-.65-20.24a283.78,283.78,0,0,1,5.68-31.53c1.52-6.22,4.06-10.33,5.73-10.1s2.92,4.73,2.84,10.77l-1.14,25.64,3.8-1c4-1.07,4.66-1.22,5.44-.93,1.94.71,2.66,3.42,2.92,4.88a4,4,0,0,1,7,3.38,5.84,5.84,0,0,1,4.56.86,5.75,5.75,0,0,1,2.23,3.38c1.86,5.45,1.43,9.34.32,12.11-1.51,3.79-4,4.79-5.47,8.57-1.59,4.05-.9,8.32.35,11.91L134,263" transform="translate(-0.55 0.06)"/><path id="Icon_material-event-note" data-name="Icon material-event-note" class="cls-6" d="M118.38,100.08H108v2.08h10.41Zm2.08-7.29h-1V90.72h-2.08V92.8H109V90.72h-2.08V92.8h-1a2.08,2.08,0,0,0-2.08,2.07h0v14.58a2.09,2.09,0,0,0,2.09,2.08h14.57a2.09,2.09,0,0,0,2.08-2.08V94.88a2.09,2.09,0,0,0-2.08-2.09Zm0,16.66H105.88V98h14.58Zm-5.21-5.2H108v2.08h7.28Z" transform="translate(-0.55 0.06)"/><g id="Group_5" data-name="Group 5"><g id="Selecteer_server" data-name="Selecteer server"><g id="Selecteer_stad" data-name="Selecteer stad" class="cls-7"><text class="cls-8" transform="translate(105.61 134.52)">Selecteer stad</text></g></g><path id="Icon_ionic-ios-arrow-down" data-name="Icon ionic-ios-arrow-down" class="cls-9" d="M177.47,133.48,181,130a.65.65,0,0,1,.93,0h0a.68.68,0,0,1,0,.94l-4,4a.67.67,0,0,1-.92,0l-4-4A.66.66,0,0,1,174,130Z" transform="translate(-0.55 0.06)"/></g></g></svg>